<svg height="300" viewBox="0 0 230 230" width="300" xmlns="http://www.w3.org/2000/svg"><path d="m0 0c-.398-.937-1.31-1.553-2.221-1.937.931-.164 1.919-.822 2.304-1.728.384-.878.219-1.865-.275-2.688-1.481-2.606-3.402-4.444-5.046-6.857-1.072-1.537-2.798-2.469-4.417-2.88-1.014-.275-2.002.137-2.827.657.029-1.699-.985-2.934-2.384-3.894-2.428-1.658-4.992-3.378-7.907-4.016-1.949-.428-6.156-.942-6.958 1.665-.403 1.315-.126 2.143-.086 2.817-1.479-.709-2.754-1.492-4.417-1.756-.933-.148-2.769-.532-3.594.958-1.919-2.989-3.427-6.115-4.689-9.351-6.308-16.349-2.632-36.372 9.354-48.963 1.673.494 3.455.719 5.322.905 4.365.435 8.641.33 12.975.412-1.961 2.209-4.279 5.651-6.336 8.421-2.195 2.88-4.033 5.76-4.994 9.134-1.07 3.923.138 7.818 2.853 10.478 2.331 2.331 5.925 2.909 9.078 2.305.443-.091.803-.027 1.111.138.897.483 4.579 6.769 4.95 9.071.083.519.108 1.052.056 1.598-.273 3.237-1.123 7.296 1.702 9.326 1.487 1.068 3.968.196 5.132-.979 1.237-1.246 1.814-2.208 1.59-4.013-.22-1.755-1.482-3.073-1.895-4.608 2.222.136 4.28-.028 6.309-.467 5.404-1.152 10.122-3.373 14.621-6.83.494-.411 1.014-.738 1.453-1.207.44.988 1.482 1.893 2.415 2.524 1.865 1.234 4.581 2.742 6.72 1.179 1.591-1.15 1.817-2.706.989-4.444-.719-1.508-2.473-2.499-3.952-3.126-1.619-.686-3.345-1.016-5.074-1.399-.356-3.703-1.344-7.269-1.7-11.055 1.015-.713 1.754-1.618 2.578-2.551 2.25-2.715 4.279-6.583 2.413-10.011-1.974-3.731-6.116-5.432-9.545-7.379-.767-.439-1.776-.723-2.533-1.1.977-.377 3.155-1.053 6.043-2.192 2.525-1.015 5.348-1.879 7.597-3.443 3.95 1.618 7.409 3.773 10.617 6.872 1.838 1.755 3.895 3.594 5.348 5.788 1.538 2.331 2.553 4.909 3.676 7.434 4.912 10.944 5.294 25.674.66 36.947-6.914 16.843-24.083 29.213-41.803 30.338-1.566.109-5.157.041-5.213-.093zm27.799-114.181c-.197.119-2.48 1.003-2.507.85-.606-3.236-1.072-6.555-1.84-9.737.033.132.555.398.662.475.401.285.802.566 1.197.853.887.639 1.53 1.256 2.192 2.149.461.621.906 1.205 1.254 1.853.32.595.437 1.2.348 1.76-.111.703-.544 1.336-1.306 1.797zm-30.295 119.156c1.998-.757 2.833-2.573 2.715-3.62 20.491 1.316 40.186-11.795 47.922-30.611 1.507-3.649 2.44-7.544 3.099-11.467.246-1.481.383-2.825.466-4.416.357-8.366-1.206-16.87-4.828-24.605-2.633-5.705-6.556-10.753-11.768-14.619-1.947-1.455-3.976-2.772-6.062-3.896-.219-1.646-.356-3.237-.657-4.663.712-.22 1.477-.257 2.167-.521 5.625-2.165 9.174-5.407 12.794-9.741 4.333-5.184 5.584-13.3 3.664-19.884-1.29-4.444-3.183-8.749-6.831-12.178-1.417-1.317-3.002-2.278-4.746-3.429-.026-.466.248-.932.329-1.509.33-2.194.495-4.444-.329-6.446-.355-.877-.603-1.756-1.125-2.633-2.468-4.224-7.02-6.281-11.574-5.486-2.415.439-4.774 1.179-6.584 3.099 0 0-.132-1.203-.277-1.927-.314-1.53-.728-2.687-2.397-4.221l-2.263-1.669c.357-2.853.698-4.842 1.062-7.876 0 0 1.818-.572 2.422-1.424 1.481-2.137 1.588-4.48 1.892-7.296.201-1.852.412-3.757.605-5.541 2.988.028 6.527-.165 9.27-1.453 1.151-.521 2.276-1.262 3.237-2.222 1.041-1.015 1.837-2.277 2.358-3.484 1.537-3.483 2.525-7.626 1.921-11.602-.051-.325-.031-.58.039-.79 1.135-.411 1.553-.966 1.797-2.174.248-1.125.36-2.249-.327-3.099-.631-.74-2.343-1.256-3.331-1.31-11.63-.85-22.59-.664-34.194-.719-1.866-.027-3.593-.111-5.512.193-.961.163-1.619 1.234-1.729 2.165-.138 1.592.604 3.348 2.248 4.034-.986 8.201-1.342 17.609-.85 25.674.139 2.304.769 4.525 2.168 6.391-.439 1.782-.599 3.766-.741 5.595-3.182-.52-7.242-.384-10.643-.082-2.029.191-4.115.493-6.008 1.178-.133-2.202-.713-6.049-.713-6.049 4.131-1.509 2.798-11.34 2.771-17.046-.056-5.322-.083-10.615-.986-15.661 1.617-.686 2.468-2.469 2.22-4.034-.109-.74-.355-1.646-1.178-1.975-1.456-.521-3.1-.19-4.664-.247-8.722-.328-17.281.33-25.894.33-3.42-.024-7.004-.181-10.379.472-2.093.406-4.375 2.216-2.898 4.603.359.575.907 1.123 1.563 1.426.023 1.697 0 3.593.276 5.677.422 3.345 1.458 6.647 3.332 9.491 1.636 2.484 4.651 3.521 7.393 4.197 2.002.495 4.169.439 6.063.604-.01.988.072 1.969.199 2.947.254 1.957 1.164 7.557 1.484 8.425.494 1.336 1.392 2.591 3.09 2.828.328 4.581 1.288 13.504 1.288 13.504-2.612 2.905-3.842 6.172-3.842 9.93-3.656.943-5.678 4.135-7.056 7.354-.155.362-.488 1.666-.776 1.856 0 0-1.509-.281-2.572-.39-1.009-.103-1.967.177-2.905.57-1.816.759-3.318 2.115-4.656 3.53-1.455 1.535-2.605 3.455-3.347 5.403-.215.565-1.048 4.643-.74 6.638-1.701-.685-4.761-1.446-5.185-2.03-2.483-3.441-6.088-4.388-8.749-7.241-.877-.933-1.729-1.948-2.524-2.77-2.58-2.717-5.816-5.076-9.929-4.279-1.756.328-3.292.987-4.746 1.892-1.617 1.042-3.017 2.442-4.142 4.033-2.77 3.895-3.401 9.518-.933 13.824.989 1.7 2.031 3.291 3.292 4.745 1.07 1.207 2.77 2.415 3.429 3.95.604 1.317.191 3.237-1.125 4.279-2.278 1.784-4.307 4.252-3.951 7.16.084.685.14 1.316.413 2.029 1.206 3.182 4.636 5.267 7.818 5.267 1.754 0 3.181-1.563 4.031-3.072.633-1.124.493-2.442.331-3.703-.193-1.481.74-3.128 2.167-3.731 1.89-.823 4.194-.686 6.115.11 5.844 2.469 11.987 3.95 18.105 5.596 1.7 3.566 5.54 5.54 9.024 6.665 1.206.384 2.577.412 3.813.713-.275.384-.632.768-.521 1.262.355 1.454 2.058 1.838 3.292 2.222 3.346 1.015 6.883-.082 9.736-1.564.55 1.235.893 4.084 1.139 5.455-10.99 12.508-15.046 30.259-9.834 46.745 1.509 4.718 5.729 12.559 6.474 13.304-.382.694-.352 2.927-.393 3.79-.126 2.678-.033 5.337 2.478 6.853 1.507.904 3.099 1.563 4.691 2.249-1.044 1.015-2.223 2.029-1.648 3.62.631 1.701 2.306 2.962 3.759 4.005 3.127 2.303 6.994 5.513 11.11 3.182.821-.494 1.644-1.152 2.303-1.865.081.576.439 1.096.741 1.645.905 1.892 3.319 2.057 5.047 1.645 2.689-.575 5.394-1.134 7.9-2.084" fill="#231f20" transform="matrix(.97316500767 0 0 -.97316500767 140.06749165738 17.07858108599)"/><path d="m0 0c.816-.922.942-2.271.045-3.796-.935-1.591-2.416-2.852-3.952-3.812-2.216-1.386-5.408-2.456-7.995-1.605-2.502.824-2.261 3.323-1.025 5.234.833 1.287 2.068 2.296 3.366 3.094 2.006 1.233 4.415 2.367 6.826 2.118 1.188-.123 2.143-.566 2.735-1.233" fill="#f9a720" transform="matrix(.97316500767 0 0 -.97316500767 127.10590222142 18.92661799979)"/><path d="m0 0c.741-.165 2.195.082 2.552-.878.548-1.344-.768-2.551-1.563-3.538-1.977-2.469-3.621-6.008-6.775-6.858-2.141-.576-3.54 1.646-4.938 3.154-.411.466-.906 1.016-1.071 1.646 1.948 1.536 4.033 3.429 4.279 5.925 2.524.137 4.967 1.015 7.516.549" fill="#ef81c6" transform="matrix(.97316500767 0 0 -.97316500767 136.11643919616 20.24428564685)"/><path d="m0 0c.274.11.494-.247.604-.137-.631-1.317-.631-2.907.192-4.088.302-.438.74-.767 1.179-.932-.702-1.249-1.618-2.633-2.496-3.868-.713-1.015-1.81-1.673-2.963-2.248-1.31-.656-3.945-2.046-5.179-.598-1.015 1.189-.814 3.534-.823 4.975-.012 1.844.432 3.702 2.134 4.702 1.564.932 3.211 1.618 4.856 2.304.686.301 1.838.137 2.496-.11" fill="#ef81c6" transform="matrix(.97316500767 0 0 -.97316500767 112.65245770276 23.44794644676)"/><path d="m0 0c.164-2.66-3.161-3.927-5.081-4.887-2.03-1.016-5.422-2.581-7.767-1.738-1.968.709-1.208 3.48-.816 5.002.144.561 2.336 4.97 2.336 4.97 2.879-.576 6.117 0 8.502 1.591.603-1.783 2.717-3.044 2.826-4.938" fill="#ef81c6" transform="matrix(.97316500767 0 0 -.97316500767 126.23978832307 32.04391319186)"/><path d="m0 0c1.234-1.865 2.085-3.95 2.906-6.008.413-1.042.825-2.222 1.125-3.291.825-2.962 1.427-5.925 1.894-8.888.434-2.759-.674-7.839-4.525-7.214-2.202.358-3.29 2.723-3.755 4.668-.465 1.944-1.067 4.422-1.483 6.404-.552 2.63-.988 4.996-2.03 7.275-.542 1.186-1.503 2.222-2.283 3.543-1.386 2.345-1.284 4.864.388 6.949.796.96 2.013 1.239 3.196.888 2.616-.779 3.343-2.493 4.567-4.326" fill="#fff" transform="matrix(.97316500767 0 0 -.97316500767 179.67724882714 43.71799938001)"/><path d="m0 0c1.792-2.81 3.111-5.86 4.034-9.06.909-3.142 2.054-7.34 1.698-10.622-.228-2.106-1.762-5.245-4.327-3.539-1.469.976-2.204 3.533-2.392 5.2-.275 2.414-1.017 4.662-1.648 6.966-.464 1.7-.962 3.827-1.907 5.299-1.312 2.047-2.75 3.404-2.587 6.009.1 1.6.745 3.491 2.596 3.655 2.266.201 3.515-2.314 4.533-3.908" fill="#fff" transform="matrix(.97316500767 0 0 -.97316500767 178.90747956638 44.16273400889)"/><path d="m0 0c2.057-1.975 4.543-4.14 7.189-4.967-.272-1.658.685-3.221 1.618-4.487.858-1.166 1.913-2.779 3.397-3.213 1.874-.548 5.042.846 6.514 1.987.333.258.593.452.856.793.348.456.724 1.111.763 1.139.223.154 4.864 1 5.556.902.296-.042.557-.15.741-.364 2.597-3.054 5.133-5.232 4.912-9.21-.054-.466-.329-.932-.603-1.317-.849-1.124-1.784-2.359-3.016-3.154-3.54-2.277-7.189-4.224-11.138-5.596-4.827-1.673-11.082-3.237-16.128-1.042-1.371.576-2.415 1.069-3.621 1.975-1.564 1.097-2.55 2.551-3.675 4.06-4.034 5.458-8.862 10.807-11.193 17.061-1.068 2.825-.959 6.583 1.18 8.942 2.002 2.249 4.58 3.484 7.571 3.1.356-.055.714-.082 1.043-.192 3.373-.933 5.51-3.976 8.034-6.417" fill="#feefad" transform="matrix(.97316500767 0 0 -.97316500767 133.4188246236 69.68009209096)"/><path d="m0 0c.252-.063.318-.258.217-.485-.32-.724-1.839-1.604-1.839-1.604.156-.873 1.127-1.862 1.616-2.58.568-.835 1.224-1.582 1.954-2.28.816-.78 1.683-1.502 2.589-2.175 1.015-.741 2.029-1.372 3.099-1.975 3.018-1.756 6.31-2.908 9.739-3.758 3.674-.905 8.064-1.07 11.71-.11-.19.423-.327.906-.465 1.427-.137.658-.383 1.535.219 1.865.084-2.249 2.003-3.703 2.963-5.596.056-.137.191-.431-.081-.466-.605-.077-1.214 1.004-1.544 1.425-.466-.658-1.008-1.535-1.557-2.166-3.402-3.922-7.626-7.296-12.426-8.558-2.441-.631-5.348-.603-7.707.137-4.526 1.454-7.873 5.87-9.49 10.067-.385 1.07-.769 2.112-1.098 3.237-.412 1.426-.658 2.962-.879 4.416-.273 2.057-.685 4.169-.438 6.392.024.216-1.448-.01-1.627-.006-.464.012-1.192.001-1.417.526.329.384.829.222 1.323.277 1.055.15 2.066.424 3.023.884.459.22.906.469 1.334.744.222.142.48.438.782.362" fill="#231f20" transform="matrix(.97316500767 0 0 -.97316500767 128.36518146994 70.06546560132)"/><path d="m0 0c2.827-3.322 5.885-5.751 9.489-7.434-.465-1.454-1.123-2.825-1.838-4.142-1.644.521-3.565.576-5.403.439-.575-.027-1.097-.192-1.645-.247-.357.988-.74 1.948-1.044 3.018-1.013 3.456-1.563 7.214-1.453 11.054.576-.85 1.176-1.846 1.894-2.688" fill="#861910" transform="matrix(.97316500767 0 0 -.97316500767 127.70926580634 75.28746995077)"/><path d="m0 0c1.426-.412 3.09-1.15 3.941-1.746.424-.298-.494-1.043-.879-1.372-1.644-1.481-4.583-2.402-5.736-1.957-1.068.412-3.096 2.807-3.864 4.591-.274.603-.466 1.399-.192 2.084 2.359-.11 4.591-.969 6.73-1.6" fill="#f78e80" transform="matrix(.97316500767 0 0 -.97316500767 148.11166913628 76.15067072919)"/><path d="m0 0c-.466-1.618-1.48-2.88-2.083-4.361-.082-.192.164-.768.383-.521 1.152 1.343 1.673 3.072 2.496 4.608 1.483-.22 2.99-.795 4.473-.851-.961-2.495-2.195-4.881-3.485-7.241-2.578.137-4.828 1.07-7.241 1.646-.796.192-1.673.411-2.303.905 1.151 2.524 2.631 4.883 3.619 7.461 1.399-.549 2.689-1.317 4.141-1.646" fill="#fff" transform="matrix(.97316500767 0 0 -.97316500767 142.12184096602 84.63082835719)"/><path d="m0 0c-2.442-3.045-4.774-5.788-8.231-7.762-.982 1.246-2.235 1.821-3.167 2.506.74 1.838 1.467 3.116 2.098 4.927 2.25-.193 4.856-.329 6.994 0 .741.11 1.538.356 2.306.329" fill="#861910" transform="matrix(.97316500767 0 0 -.97316500767 157.25942010758 85.53781665451)"/><path d="m0 0c-.571-1.219-1.041-1.935-1.371-3.114.384-.632 1.181-1.125 1.921-1.317 2.879-.796 5.677-1.893 8.668-2.113 1.125-.081 1.315 1.482 1.973 2.223.961-.659 2.058-1.235 2.771-2.167-3.977-2.688-9.957-3.237-14.208-.577-2.716 1.674-4.637 4.527-5.925 7.242 1.93.409 4.467.478 6.171-.177" fill="#f78e80" transform="matrix(.97316500767 0 0 -.97316500767 134.75497899019 87.36542140882)"/><path d="m0 0c.534-.641 2.085-2.523 3.291-3.345-5.266.137-10.177.356-15.195-.083-.495-.055-2.369-.186-3.117-.175-.756.403-2.947 1.629-3.741 2.754.85.247 1.783.328 2.689.466 2.988.439 6.801.686 9.955.713 1.948.027 5.926-.099 6.118-.33" fill="#94979a" transform="matrix(.97316500767 0 0 -.97316500767 127.01442622371 93.22679510229)"/><path d="m0 0c2.275-1.481 4.635-2.771 7.021-3.95 12.918-6.281 28.884-8.393 43.532-5.459.684.138 1.536.22 2.303.467 1.785.521 3.429 1.125 5.13 1.837-.193-1.508-.274-3.017-.522-4.553-.081-.411-.274-.768-.74-.904-3.347-1.153-6.83-1.949-10.314-2.58-7.928-1.344-16.458-1.398-24.304.138-3.51.686-6.966 1.59-10.258 2.77-2.387.85-5.065 1.934-6.858 2.881-.873 1.569-2.977 3.032-6.199 3.236-.873.586-2.359 1.481-3.346 2.304.494 2.03.823 4.114 1.509 6.063.795-1.016 2.002-1.592 3.046-2.25" fill="#fff" transform="matrix(.97316500767 0 0 -.97316500767 110.30518360144 96.88297733088)"/><path d="m0 0c-1.125-.411-2.306-.741-3.429-1.18-.537-.209-3.068 1.205-3.74 1.437-1.204.417-7.755 3.313-11.65 3.83 1.538.357 3.62 1.21 4.995 1.646 2.581-.817 9.462-3.347 13.824-5.733" fill="#94979a" transform="matrix(.97316500767 0 0 -.97316500767 164.03946481808 102.96915013873)"/><path d="m0 0c.519-.062 1.042-.097 1.581-.107.206-.004 2.933-.08 2.936-.05-.192-2.057-.686-4.142-.385-6.253-3.592.301-7.405.905-10.915 1.782.026.603.602 1.235.766 1.921.44 1.48.715 3.127.467 4.799.691-.628 2.316-1.31 2.808-1.475.912-.307 1.816-.506 2.742-.617" fill="#d2944c" transform="matrix(.97316500767 0 0 -.97316500767 137.0866845319 99.74700261928)"/><path d="m0 0c-.631-.933.85-1.399.328-2.387l-.218-.905c-7.735-1.015-15.17-2.798-22.905-3.895.52.979 1.394 1.672 2.317 2.251 1.352.847 3.012 1.744 4.524 2.246.565.186 4.28 1.169 6.338.666-.302.851-2.006 1.974-1.245 2.819 1.245 1.387 3.005 1.126 4.487.99 1.092-.1 2.552-.172 3.607-.497.225-.07 2.878-1.123 2.767-1.288" fill="#d2944c" transform="matrix(.97316500767 0 0 -.97316500767 104.53820910561 99.81901413748)"/><path d="m0 0c.219-.467-.55-.823 0-1.18.383-.246.658.439.986.384.275-.039.248-.407.224-.619-.035-.302-.368-.5-.606-.638-.286-.165-.633-.204-.934-.06-.266.127-.57.19-.766.43-.078.097-.095.19-.096.311-.002.184-.015.37-.018.554-.004.324.205.63.466.806.216.148.575.327.744.012" fill="#b2b5b7" transform="matrix(.97316500767 0 0 -.97316500767 111.77271564475 99.81901413748)"/><path d="m0 0-1.54-.191.276 1.041c.385-.356.797-.63 1.264-.85" fill="#fff" transform="matrix(.97316500767 0 0 -.97316500767 107.42169383353 102.7025039054)"/><path d="m0 0c.575-1.838-.742-4.361.521-6.254.493-.713.877-1.399 1.537-2.029 1.097-1.125 2.632-1.289 4.141-1.317 3.454-.055 7.405.357 10.011-2.359 3.265-3.456 5.706-8.037 4.142-12.261-.988-2.633-2.843-4.48-5.595-6.584-1.21-.924-2.854-1.454-4.032-2.633-2.826-2.853-4.8-7.351-8.943-8.695-2.497-.796-5.101.137-7.297 1.399-4.498 2.523-7.323 7.269-6.665 12.37.575 4.335 3.951 7.297 6.584 10.863 1.014 1.344 1.534 3.1 1.262 4.938-.329 2.221-2.716 2.77-3.814 4.608-1.069 1.728-1.782 4.306-.659 6.171 1.346 2.305 3.786 3.923 6.448 3.566.959-.137 2.057-.767 2.359-1.783" fill="#fff" transform="matrix(.97316500767 0 0 -.97316500767 52.56535744493 105.85263990664)"/><path d="m0 0c.767.164.055 1.481 1.044.933-.165-.686.165-1.427-.66-1.783-.14-.066-.308-.098-.461-.111-.145-.012-.291-.01-.438-.012-.129-.003-.263-.012-.387.026-.242.073-.354.321-.424.543-.04.118-.054.242-.054.367.001.116-.004.25.062.349.078.12.108.259.172.387.045.089.108.179.163.264.093.141.3.206.426.071.068-.074.092-.205.098-.302.011-.201-.091-.495.051-.665.099-.118.275-.095.408-.067" fill="#b2b5b7" transform="matrix(.97316500767 0 0 -.97316500767 124.26426461246 106.49298197063)"/><path d="m0 0c.66-.165.495 1.124 1.072.85.383-.192.136-.713 0-1.042-.164-.467-.605-.824-1.125-.878-.446-.047-.676.442-.705.809-.024.305-.05.642.111.916.107.182.325.446.538.249.219-.192-.027-.658.109-.904" fill="#b2b5b7" transform="matrix(.97316500767 0 0 -.97316500767 161.98219230951 107.82719089728)"/><path d="m0 0c6.584-2.332 13.606-3.923 20.929-4.334-.243-.218-.246-.412-.411-.713-.576-1.235-.302-2.826.411-3.895-1.371-3.21-3.592-6.008-5.267-9.08-.044-.524.122-.709.589-.791 1.552-.311 4.132-.831 4.735-.854.468-1.626 1.018-3.868-.105-5.34-.494-.649-1.094-1.266-1.383-2.042-.453-1.22-.55-2.58-.078-3.81.933-2.442 1.209-5.678-.547-7.708-1.865-2.194-2.99-5.322-2.167-8.036.603-1.921 1.673-3.841 1.069-6.036-.547-2.029-2.605-3.319-2.907-5.348-.22-1.619-.302-3.265.327-4.855.248-.027.386.192.386.384 0 1.222-.13 2.477.096 3.688.235 1.267.877 2.123 1.697 3.071.44.508.884 1.105 1.115 1.744.521 1.316.685 2.852.384 4.196-.467 2.251-1.921 4.307-1.234 6.858.591 2.18 2.423 3.76 3.158 5.873.734 2.1.469 4.643-.472 6.635-.364.775-.381 1.573-.103 2.374.475 1.379 1.623 2.414 2.235 3.726.314.67.449 1.35.34 2.089-.035.236-.635 2.495-.743 2.482 1.005.116 2.113.093 3.125.339.424.103.971.12 1.263.429.325.34.232 1.26.169 1.752-.194 1.477-1.155 6.312-2.142 8.013.41.328.926.892 1.175 1.578.301.878.304 2.289-.244 3.085 3.511.219 7.077.301 10.589.85 3.208.493 6.473 1.427 9.627 2.304.165-2.853-.027-5.733-.329-8.477-1.179-.492-2.223-.739-3.429-1.123-3.044-1.015-6.637-1.152-9.929-1.18-.603-.028-1.618-.164-1.591-.795.107-6.47.031-12.258-1.053-18.234-.024-.131.009-.676.372-.759.247-.057.478-.065.735-.096 2.527-.317 6.642.211 9.299 1.232.711.273 1.4.576 2.114.878-1.947-9.486-4.254-17.676-6.991-28.341-.296-1.153-.648-2.169-1.392-3.115-.617-.787-1.489-1.492-2.544-2.126-4.182-2.509-11.249-3.901-16.942-4.821-.441-.081-.96-.163-1.427-.192-9.465-.658-19.503 1.949-27.21 7.709-4.006 3.017-6.83 7.213-6.913 12.453-.11 11.411 4.579 22.191 4.086 33.629 2.414.795 4.938 1.371 7.242 2.304l3.044 1.7c2.97 2.564 3.978 4.966 3.95 8.229-.027 1.317-.081 2.634-.603 3.896 1.742-.512 2.58-.933 3.895-1.399" fill="#fff" transform="matrix(.97316500767 0 0 -.97316500767 119.91324280124 109.18864606324)"/><path d="m0 0c.137-.494.083-1.152-.466-1.372-.439-.191-1.014-.685-1.508-.136-.33.383-.441 1.014-.275 1.508.082.22.328.22.548.192.067-.009.112-.259.122-.307.023-.12.027-.242.06-.358.048-.164.178-.423.37-.285.176.128.449.181.49.429.056.357-.383.85.056 1.07.494.192.494-.439.603-.741" fill="#b2b5b7" transform="matrix(.97316500767 0 0 -.97316500767 141.42894682334 108.73515191458)"/><path d="m0 0c-.083-.577.082-1.591-.879-1.563-.327.026-.768-.028-.987.328-.197.338-.149.815-.074 1.182.029.133.16.386.312.406.188.025.252-.225.285-.369s.04-.388.166-.488c.347-.273.554.083.546.381-.007.231-.148.629.165.726.438.137.492-.274.466-.603" fill="#b2b5b7" transform="matrix(.97316500767 0 0 -.97316500767 154.18908746434 109.18864606324)"/><path d="m0 0c.548-.796.545-2.207.244-3.085-.249-.686-.765-1.25-1.175-1.578.987-1.701 1.948-6.536 2.142-8.013.063-.492.156-1.412-.169-1.752-.292-.309-.839-.326-1.263-.429-1.012-.246-2.12-.223-3.125-.339.108.013.708-2.246.743-2.482.109-.739-.026-1.419-.34-2.089-.612-1.312-1.76-2.347-2.235-3.726-.278-.801-.261-1.599.103-2.374.941-1.992 1.206-4.535.472-6.635-.735-2.113-2.567-3.693-3.158-5.873-.687-2.551.767-4.607 1.234-6.858.301-1.344.137-2.88-.384-4.196-.231-.639-.675-1.236-1.115-1.744-.82-.948-1.462-1.804-1.697-3.071-.226-1.211-.096-2.466-.096-3.688 0-.192-.138-.411-.386-.384-.629 1.59-.547 3.236-.327 4.855.302 2.029 2.36 3.319 2.907 5.348.604 2.195-.466 4.115-1.069 6.036-.823 2.714.302 5.842 2.167 8.036 1.756 2.03 1.48 5.266.547 7.708-.472 1.23-.375 2.59.078 3.81.289.776.889 1.393 1.383 2.042 1.123 1.472.573 3.714.105 5.34-.603.023-3.183.543-4.735.854-.467.082-.633.267-.589.791 1.675 3.072 3.896 5.87 5.267 9.08-.713 1.069-.987 2.66-.411 3.895.165.301.168.495.411.713.49-.09 2.841-.189 4.471-.192" fill="#b2b5b7" transform="matrix(.97316500767 0 0 -.97316500767 144.63163490328 113.59319267313)"/><path d="m0 0c.169-.945-.206-1.607-.701-2.266-.724-1.088-2.337-.694-2.895.348-.429.798-.052 2.088.592 2.67.576.521 2.722.795 3.004-.752" fill="#fff" transform="matrix(.97316500767 0 0 -.97316500767 144.21901011359 114.64518176683)"/><path d="m0 0c.631-2.907 1.618-5.65 2.221-8.613-1.261-.438-3.016-.493-4.388-.521-1.317-.027-2.907.165-4.168.905 1.48 2.907 3.153 5.459 4.551 8.367.467-.357 1.263-.467 1.784-.138" fill="#fff" transform="matrix(.97316500767 0 0 -.97316500767 142.84392678797 118.53200446966)"/><path d="m0 0c-2.878-.961-5.595-2.441-7.432-5.267-1.179-1.783-1.865-3.73-2.111-5.87-.249 1.152-.029 2.497.136 3.758.193 1.618 1.288 2.989 2.36 4.279.74.905 1.754 1.865 2.824 2.386.633.275 1.235.576 1.92.906.631.329 1.153.383 1.976.136.137-.054.466-.027.327-.328" fill="#231f20" transform="matrix(.97316500767 0 0 -.97316500767 62.76023391006 119.99953651297)"/><path d="m0 0c-1.033-1.092-8.214-2.817-11.615-2.159.844 2.485 1.76 11.445.851 17.39 2.303.357 4.608.248 6.912.659 2.386.384 4.855.823 7.049 1.838-.63-5.87-3.073-17.597-3.197-17.728" fill="#fddd4e" transform="matrix(.97316500767 0 0 -.97316500767 160.74043210056 137.118480725)"/><path d="m0 0c.192-.52.329-1.206.055-1.727.857-.402 2.118-.524 2.642-1.43.368-.637.204-1.725-.526-2.077.071.033.038-1.75.021-1.916-.065-.714-.209-1.378-.486-2.046-.521-1.249-1.731-2.614-2.831-2.791-1.074-.171-2.497 1.455-3.292 2.442-.713.878-.877 1.92-.933 3.072-.385.247-.85.549-.986.932-.683 1.912 1.195 2.827 2.655 3.186 1.361.337.825 1.145 1.297 2.113.37.762 1.976 1.236 2.384.242" fill="#231f20" transform="matrix(.97316500767 0 0 -.97316500767 159.18142405953 124.2182079275)"/><path d="m0 0c-.659-3.21-.958-6.666-1.179-9.684-1.482.603-2.552 2.167-3.485 3.428-3.592 4.855.138 11.083-2.496 16.376-.904 1.811-2.44 3.758-4.415 4.17-1.023.204-1.228.312-2.25.099-.928-.193-1.952-1.32-2.167-1.553-.223-.243-.109-.686.275-.85.658.85 1.673 1.618 2.881 1.233.781-.248 1.565-.669 2.177-1.213 2.556-2.282 1.967-5.67 2.11-8.711.018-.391-.065-2.775-.065-2.775-1.59-.905-3.401-.604-5.13-.054-3.619 1.096-6.553 4.882-7.569 8.282-.548 1.784-.411 3.484-.33 5.322 1.784 1.29 3.923 1.948 5.981 2.771 2.743 1.097 5.458 2.222 8.312 2.962 3.455.933 6.719 2.085 10.257 2.826-.054-7.846-1.344-15.333-2.907-22.629" fill="#d2944c" transform="matrix(.97316500767 0 0 -.97316500767 98.23793710312 145.81176482767)"/><path d="m0 0c0-.521-.438-1.316.137-1.591.824-.384 2.169-.493 2.169-1.645-.879.191-2.169.191-3.155 0-1.318-.248-2.633-.741-3.95-.905-.302-.056-.383.438-.246.657.851 1.453 2.934.96 3.73 2.414.302.549.081 1.289.411 1.783.549.11.904-.164.904-.713" fill="#d2944c" transform="matrix(.97316500767 0 0 -.97316500767 158.7785315096 125.31204414016)"/><path d="m0 0c-.108-2.245-.55-4.142-2.387-5.322-.796-.521-1.427.302-1.894.795-.987.988-1.973 2.305-1.644 3.759 1.589.384 3.454.932 5.129.905z" fill="#f9a720" transform="matrix(.97316500767 0 0 -.97316500767 160.59640402416 129.55601635406)"/><path d="m0 0c1.125-2.304 1.373-5.512.413-7.954-.494 0-.96.96-1.179.247-.275-.741.467-1.564.658-2.359.412-1.837.494-3.951-.548-5.541 1.069.494 1.508 1.619 1.865 2.579 1.069.137 2.139-.412 3.016-1.043.248.192-.218.494.138.576-.604 1.207-1.865 1.701-2.964 2.112.056.877-.327 1.591-.464 2.359 1.928.192 4.141 1.179 5.979 2.304 1.152-3.045.658-6.886-1.042-9.463-2.086-3.155-5.624-4.334-9.161-4.032-2.113.191-3.924 1.316-5.596 2.633-.686.576-1.131 1.21-1.371 2.056.439 1.977 1.26 3.76 1.698 5.734 1.181 5.075 2.772 10.039 3.568 15.142 2.605-.467 4.004-3.265 4.99-5.35" fill="#fff" transform="matrix(.97316500767 0 0 -.97316500767 166.7867082694 146.08036154095)"/><path d="m0 0c-.201-2.044-.229-3.857-.449-5.914-4.58 1.563-9.479 1.799-14.418 1.58.577 3.703.906 7.57 1.564 11.246 4.115-3.072 8.532-5.431 13.303-6.912" fill="#fff" transform="matrix(.97316500767 0 0 -.97316500767 115.80162098403 175.54974480422)"/><path d="m0 0c.182-1.66.755-5.37.922-7.201-4.578.802-10.286-.083-14.949-1.893-.275 1.618-.302 3.265-.713 4.854 4.965.824 11.841 2.903 14.74 4.24" fill="#fff" transform="matrix(.97316500767 0 0 -.97316500767 149.6346764582 172.83947983197)"/><path d="m0 0c1.216-.234 3.013-.741 3.588-1.948 1.264-2.661 1.235-6.007 1.318-9.025.22-7.104-.083-14.209-.575-21.34-3.046.301-6.612.275-9.74.548-9.242.768-19.145-.083-28.306.193.11 3.511.602 6.829 1.507 10.011.385 1.345 1.208 2.551 2.032 3.731.986 1.398 2.303 2.523 3.703 3.182 4.607 2.112 10.806 1.7 15.388.247.876-.274 1.865-.576 2.714-.796-2.03 1.728-4.387 2.304-6.995 2.771l-1.892.192c.329 3.84.742 7.791 1.976 11.328.193.549.652 1.376 1.308 1.513 1.74.395 4.092.542 5.966.422 2.417-.152 6.021-.65 8.008-1.029" fill="#b2b5b7" transform="matrix(.97316500767 0 0 -.97316500767 113.32394192597 182.03588696206)"/><path d="m0 0c.884-.432 1.737-5.027 2.026-7.044.063-.433.703-5.603.799-5.6-3.127-.111-5.679-1.07-8.284-2.387-.274-.109-.494-.466-.657-.658 1.042.137 2.165.576 3.209.878 3.591.932 7.24 1.481 11.135.769 9.26-1.696 10.237-10.127 11.001-18.022-4.553-.358-8.999 0-13.633.137-7.956.219-16.432-.495-24.358-.878-.192 2.906-.575 13.968-.575 13.968l.054 8.964c.192 2.468.006 4.695.995 6.918.467 1.068 1.637 1.969 2.626 2.216 2.522.657 5.128 1.207 7.707 1.261 2.715.055 6.536.175 7.955-.522" fill="#b2b5b7" transform="matrix(.97316500767 0 0 -.97316500767 152.64077934305 181.55708999803)"/><path d="m0 0c.026-.913.041-1.804-.108-2.711-.248-1.494-.643-3.687-2.238-4.337-1.338-.545-2.648.53-2.975 1.837-.506 2.018-.593 4.2-.128 6.236.289 1.264.751 2.879 1.784 3.74 1.432 1.191 2.792-.355 3.268-1.695.351-.993.368-2.031.397-3.07" fill="#ef2e31" transform="matrix(.97316500767 0 0 -.97316500767 116.95092743529 196.93212369366)"/><path d="m0 0c.896-.421 1.491-1.774 1.788-2.533.586-1.491.826-3.072.809-4.669-.017-1.628-.296-5.572-2.881-5.109-1.708.307-2.435 3.062-2.702 4.509-.379 2.049-.248 4.145.453 6.113.248.695.734 1.424 1.444 1.71.401.163.766.133 1.089-.021" fill="#ef2e31" transform="matrix(.97316500767 0 0 -.97316500767 137.94014803056 191.97774081752)"/><path d="m0 0c.031-1.128-.391-7.647-2.663-6.905-1.15.376-1.295 1.963-1.358 2.953-.193 2.168.165 4.692 1.315 6.583.556.909 1.329.926 1.933.046.538-.786.747-1.715.773-2.677" fill="#ef2e31" transform="matrix(.97316500767 0 0 -.97316500767 116.13930601558 196.18278659239)"/><path d="m0 0c.248-1.151.762-6.695-1.586-6.392-1.294.168-1.714 2.596-1.898 3.621-.236 1.299-.267 2.613-.165 3.934.053.707.547 2.819 1.309 3.005 1.485.362 2.103-3.074 2.34-4.168" fill="#ef2e31" transform="matrix(.97316500767 0 0 -.97316500767 139.3745975147 196.74430305835)"/><path d="m0 0c2.935-2.168 4.005-5.514 3.483-8.97-.191-1.179-.466-2.359-.85-3.484.138 4.143.165 8.532-3.099 11.384-2.413 2.112-5.376 2.77-8.558 2.907-1.262.055-2.99-.164-4.333.329.052.302.492.302.767.331 4.527.246 9.025.081 12.59-2.497" fill="#231f20" transform="matrix(.97316500767 0 0 -.97316500767 103.44339513298 200.13480975759)"/><path d="m0 0c.056-.138-.082-.192-.136-.274-4.005-.274-8.503.109-11.907-2.304-4.031-2.854-4.222-7.625-3.948-12.18-1.315 3.319-1.455 7.763.768 10.671 2.276 2.963 5.649 4.032 9.106 4.28 1.948.137 4.115.164 6.117-.193" fill="#231f20" transform="matrix(.97316500767 0 0 -.97316500767 161.4226212835 197.89263779764)"/><path d="m0 0c1.263.055 2.278-.631 2.88-1.564.507-.782.601-2.183-.37-2.652-.848-.409-1.944-.205-2.847-.252-1.254-.064-2.531.047-3.789.028-8.638-.119-17.271.243-25.909.243-2.442 0-4.882-.055-7.378.329-1.044.164-2.579.521-2.633 1.892 0 .769.464 1.646 1.262 1.92 2.002.633 4.305.412 6.307.522 5.021.246 10.782.301 15.746.191 5.649-.137 11.108-.877 16.731-.657" fill="#94979a" transform="matrix(.97316500767 0 0 -.97316500767 116.70958200133 214.30895814724)"/><path d="m0 0c1.619-.109 3.429.083 4.937-.411.63-.192.961-.851 1.125-1.426.137-.55-.019-.935-.4-1.235-1.952-1.538-5.442-1.178-8.103-1.344-8.064-.465-16.128-.218-24.276-.329-3.099-.027-6.692-.383-9.736.192-.494.11-.659.686-.742 1.124-.219 1.291.55 2.771 1.728 2.909 10.203 1.152 20.518 1.234 30.804.713 1.563-.082 3.127-.11 4.663-.193" fill="#94979a" transform="matrix(.97316500767 0 0 -.97316500767 168.202660954 214.04328412988)"/><path d="m0 0c.028-.66-.631-1.51-.246-2.359.165-.357.356-.685.657-.988-.135-.247-.407-.089-.547 0-.356.222-.732.716-.786 1.073-.138.849-.04 1.826.922 2.274" fill="#231f20" transform="matrix(.97316500767 0 0 -.97316500767 146.42031069856 214.30895814724)"/><path d="m0 0c-.076-.703-.276-1.78-1.099-1.966-.241.661.302 1.115.292 1.749-.007.457-.263.691-.453 1.065-.238.465-.141.591.289.441.476-.166 1.01-.762.971-1.289" fill="#231f20" transform="matrix(.97316500767 0 0 -.97316500767 107.92774006087 215.96431183385)"/><path d="m0 0c-2.574.785-3.627 1.035-6.247 1.222-.744.054-1.788.579-3.077 1.184-.691.325-3.259 2.656-4.301 3.837-1.756 1.946-3.456 4.251-5.677 5.65 1.839 2.788 4.478 8.982 4.731 9.71.2.568.313 1.161.206 1.811-.441 2.578-.989 6.062.74 8.311.329.411.932.521 1.315.521 1.233 0 2.376-.52 3.246-1.388 1.084-1.084.65-2.197.183-3.55-.603-1.59-1.863-3.236-1.591-4.746 1.675-.219 3.567-.136 5.131-.383 6.171-.988 11.328-3.204 16.293-7.044.714-.549 1.967-1.927 2.513-1.392 1.877 1.84 3.85 4.02 6.54 4.267.656.082 1.563-.055 2.111-.576.686-.659.577-1.838.192-2.579-.661-1.289-1.871-1.911-3.172-2.388-.856-.314-3.647-1.259-4.189-1.374-.52-.111-1.051-.205-1.582-.325-.273-.027-.537-2.224-.695-3.077-.563-3.02-1.497-6.055-1.883-9.156-1.125-.282-2.233-.639-3.367-.88-.493-.104-1.068-.345-1.568-.347-.44-.001-1.005.496-1.379.72-.771.464-1.516.948-2.392 1.207-.706.209-1.406.559-2.081.765" fill="#d2944c" transform="matrix(.97316500767 0 0 -.97316500767 147.4547857927 74.8222981224)"/><path d="m0 0c1.669-.563 3.555-.38 5.198.713.71.473 1.597 1.151 2.082 1.864 0 0 .553.816.738 1.409.183.593.294.964.34 1.392.047.428.12.555.062 1.234-.082.916-.405 2.569-1.005 3.357 0 0 .36.558 1.646 1.769l-.777.772-1.508-1.729c-.342.436-.947.933-1.41 1.176.279.871.924 2.24.924 2.24l-1.086.504-.866-2.257c-.861.336-1.104.285-1.946.349l.021 2.334-1.112-.002.094-2.4c-.329-.093-2.237-.468-3.14-1.261-.276.878-.714 1.784-1.371 2.524.409.685 1.453 2.03 1.453 2.03l-.877.658-1.373-1.838c-.409.369-1.104.833-1.582 1.037.203.891.732 2.309.732 2.309l-1.125.412-.676-2.322c-.883.263-1.633.184-2.479.173l-.185 2.327-1.106-.1.305-2.382c-.872-.334-2.414-1.042-3.292-2.057-1.262-1.454-1.866-3.265-1.784-5.267.028-.466.22-.851.329-1.316.604-2.332 2.689-4.225 4.993-4.801 2.113-.521 4.032.22 5.595 1.371.358-.356.467-.905.741-1.371.821-1.401 2.057-2.384 3.447-2.851" fill="#231f20" transform="matrix(.97316500767 0 0 -.97316500767 149.72128381604 75.49961866547)"/><path d="m0 0c1.219-2.76-.115-6.218-2.748-7.632-1.027-.552-2.19-.766-3.348-.667-2.221.192-4.47 2.003-5.073 4.225-.631 2.25-.138 4.718 1.645 6.309 3.182 2.84 8.033 1.145 9.524-2.235" fill="#fff" transform="matrix(.97316500767 0 0 -.97316500767 147.04021556306 64.00848951275)"/><path d="m0 0c.987-1.645 1.014-3.895.191-5.541-.712-1.426-2.221-2.305-3.731-2.743-1.739-.505-3.563-.056-4.924 1.106-.876.748-1.433 1.748-1.877 2.845 1.84 1.725 1.944 4.119 1.974 6.034.003.271 2.319.9 2.577.949 1.157.219 2.537.135 3.568-.483.824-.493 1.728-1.288 2.222-2.167" fill="#fff" transform="matrix(.97316500767 0 0 -.97316500767 156.35145909028 66.63895112699)"/><path d="m0 0c.005-.007.01-.013.016-.02.759-.934.383-2.877-.984-3.015-.978-.099-1.941.546-2.062 1.537-.09.74.321 1.472.946 1.85.609.369 1.606.211 2.084-.352" fill="#231f20" transform="matrix(.97316500767 0 0 -.97316500767 142.38751447938 65.04199188691)"/><path d="m0 0c.005-.007.011-.013.015-.019.759-.935.384-2.878-.984-3.017-.978-.098-1.94.547-2.06 1.538-.091.741.32 1.472.945 1.85.608.369 1.604.21 2.084-.352" fill="#231f20" transform="matrix(.97316500767 0 0 -.97316500767 152.3546686302 67.98289229339)"/><path d="m0 0c-.218-.768-.684-1.481-1.315-2.03.41 1.481.96 3.402.796 5.075.768-.713.823-2.057.519-3.045" fill="#a85a0c" transform="matrix(.97316500767 0 0 -.97316500767 136.35583919017 48.64707893678)"/><path d="m0 0c-1.673-.768-2.907-2.167-4.608-2.825-.329.96.769 1.262 1.371 1.701.933.686 2.086.987 3.237 1.179z" fill="#a85a0c" transform="matrix(.97316500767 0 0 -.97316500767 166.22713724339 60.87294935114)"/><path d="m0 0c3.95 1.618 7.409 3.773 10.617 6.871 1.838 1.756 3.895 3.595 5.348 5.789 1.538 2.331 2.553 4.909 3.676 7.434 4.912 10.944 5.294 25.674.66 36.947-6.914 16.843-24.083 29.213-41.803 30.338-1.566.11-5.157.042-5.213-.093l.219 1.354c20.491 1.317 40.186-11.794 47.922-30.61 1.507-3.649 2.44-7.544 3.099-11.467.246-1.481.383-2.825.466-4.416.357-8.366-1.206-16.87-4.828-24.605-2.633-5.705-6.556-10.753-11.768-14.619-1.947-1.455-3.976-2.772-6.062-3.897z" fill="#fff" stroke="#fff" transform="matrix(.97316500767 0 0 -.97316500767 166.06559012743 102.0222601624)"/><path d="m0 0c-11.986 12.59-15.662 32.613-9.354 48.962 1.262 3.236 2.77 6.362 4.689 9.351l-.656 1.594c-.745-.745-4.965-8.586-6.474-13.304-5.212-16.486-1.156-34.236 9.834-46.745z" fill="#fff" stroke="#fff" transform="matrix(.97316500767 0 0 -.97316500767 107.79441694421 92.958203429)"/><path d="m0 0c-1.977-2.469-3.621-6.008-6.775-6.858-2.141-.576-3.54 1.646-4.938 3.154-.411.466-.906 1.016-1.071 1.646 1.948 1.536 4.033 3.429 4.279 5.925 2.524.137 4.967 1.015 7.516.549.741-.165 2.195.082 2.552-.878.548-1.344-.768-2.551-1.563-3.538zm-16.219-12.596c-2.03-1.016-5.422-2.581-7.767-1.738-1.968.709-1.208 3.48-.816 5.002.144.561 2.336 4.97 2.336 4.97 2.881-.576 6.117 0 8.504 1.591.601-1.783 2.715-3.044 2.824-4.938.164-2.66-3.161-3.927-5.081-4.887zm-12.365 2.447c-1.31-.656-3.945-2.046-5.179-.598-1.015 1.189-.814 3.534-.823 4.975-.012 1.844.434 3.702 2.134 4.702 1.564.932 3.211 1.618 4.856 2.304.686.301 1.838.137 2.496-.11.274.11.494-.247.604-.137-.631-1.317-.631-2.907.192-4.088.302-.438.74-.767 1.179-.932-.702-1.249-1.618-2.633-2.496-3.868-.713-1.015-1.81-1.673-2.963-2.248zm-.383 15.086c-.707 1.795 2.35 3.434 3.494 4.157 2.12 1.341 4.021 2.863 6.519 3.469 1.809.439 3.565-.357 4.663-1.838.547-.768.63-1.811.794-2.771-4.114-.466-7.927-2.222-10.396-5.925-1.865.522-4.334.988-5.074 2.908zm15.984 2.066c1.188-.123 2.143-.566 2.735-1.233.816-.922.942-2.271.045-3.796-.935-1.591-2.416-2.852-3.952-3.812-2.216-1.385-5.408-2.456-7.995-1.605-2.502.824-2.261 3.323-1.025 5.234.835 1.287 2.07 2.296 3.366 3.094 2.006 1.233 4.415 2.367 6.826 2.118zm1.874 5.588c1.536 1.863 3.313.782 5.337.44 2.343-.395 4.74-1.006 6.758-2.306.795-.521 1.208-1.427.906-2.304-.59-1.715-3.099-2.081-4.667-2.421-2.257-.492-4.469-1.029-5.865-.816-.167.987-.798 1.673-1.702 2.111-.632.33-1.371.494-2.111.605-.167 1.559.349 3.485 1.344 4.691zm14.263-8.587c-.385.906-1.373 1.564-2.304 1.728.911.384 1.823 1 2.221 1.937l.219 1.355c.118 1.048-.717 2.863-2.715 3.62-2.506.951-5.211 1.509-7.9 2.085-1.728.412-4.142.247-5.047-1.646-.302-.548-.66-1.069-.741-1.645-.659.713-1.482 1.371-2.303 1.865-4.116 2.331-7.983-.878-11.11-3.182-1.453-1.042-3.128-2.304-3.759-4.005-.575-1.591.604-2.605 1.648-3.62-1.592-.686-3.184-1.345-4.691-2.249-2.511-1.516-2.604-4.175-2.478-6.853.041-.863.011-3.096.393-3.79l.656-1.594c.825-1.49 2.661-1.106 3.594-.958 1.663.264 2.938 1.047 4.417 1.756-.04-.674-.317-1.502.086-2.817.802-2.607 5.009-2.093 6.958-1.665 2.915.638 5.479 2.358 7.907 4.016 1.399.96 2.413 2.195 2.384 3.894.825-.52 1.813-.932 2.827-.657 1.619.411 3.345 1.343 4.417 2.88 1.644 2.413 3.565 4.251 5.046 6.857.494.823.659 1.81.275 2.688" fill="#ca1694" transform="matrix(.97316500767 0 0 -.97316500767 137.0788977321 24.54178265941)"/><path d="m0 0c.52.979 1.394 1.672 2.317 2.251 1.352.847 3.012 1.744 4.524 2.245.565.187 4.28 1.17 6.338.667-.302.851-2.006 1.974-1.245 2.819 1.245 1.387 3.005 1.126 4.487.99 1.092-.1 2.552-.173 3.607-.497.225-.07 2.878-1.123 2.767-1.288l.246 1.453c-2.853 1.482-6.39 2.579-9.736 1.564-1.234-.384-2.937-.769-3.292-2.222-.111-.494.246-.878.521-1.262-1.236-.301-2.607-.329-3.813-.713-3.484-1.125-7.324-3.099-9.024-6.666z" fill="#a85a0c" transform="matrix(.97316500767 0 0 -.97316500767 82.35491174019 106.81315300263)"/><path d="m0 0c-.081-1.838-.218-3.538.33-5.322 1.016-3.4 3.95-7.186 7.569-8.282 1.729-.55 3.54-.851 5.13.054 0 0 .083 2.384.065 2.775-.143 3.041.446 6.429-2.11 8.711-.612.544-1.396.965-2.177 1.213-1.208.385-2.223-.383-2.881-1.233-.384.164-.498.607-.275.85.215.233 1.239 1.36 2.167 1.553 1.022.213 1.227.105 2.25-.099 1.975-.412 3.511-2.359 4.415-4.17 2.634-5.293-1.096-11.521 2.496-16.376.933-1.261 2.003-2.825 3.485-3.428l.19-1.92c-3.656.943-5.678 4.135-7.056 7.354-.155.362-.488 1.666-.776 1.856 0 0-1.509-.281-2.572-.39-1.009-.103-1.967.177-2.905.57-1.816.759-3.318 2.115-4.656 3.53-1.455 1.535-2.605 3.455-3.347 5.403-.215.565-1.048 4.643-.74 6.638z" fill="#a85a0c" transform="matrix(.97316500767 0 0 -.97316500767 77.17572722967 132.11933508998)"/><path d="m0 0c-.174-.123-.309-.629-.309-.629-2.646.827-5.132 2.992-7.189 4.967-2.524 2.441-4.661 5.484-8.034 6.417-.329.11-.687.137-1.043.192-2.991.384-5.569-.851-7.571-3.1-2.139-2.359-2.248-6.117-1.18-8.942 2.331-6.254 7.159-11.603 11.193-17.061 1.125-1.509 2.111-2.963 3.675-4.06 1.206-.905 2.25-1.399 3.621-1.975 5.046-2.195 11.301-.631 16.128 1.042 3.949 1.372 7.598 3.319 11.138 5.596 1.232.795 2.167 2.03 3.016 3.154.274.385.549.851.603 1.317.221 3.978-2.315 6.156-4.912 9.21-.184.214-.445.322-.741.364-.692.098-5.333-.748-5.556-.902 0 0 .062.487-.349.807.343-.069.72.009.945.066.31.079.623.186.91.246 1.134.241 2.242.598 3.367.88.386 3.101 1.32 6.136 1.883 9.156.158.853.422 3.05.695 3.077.531.12 1.062.214 1.582.325.542.115 3.333 1.06 4.189 1.374 1.301.477 2.511 1.099 3.172 2.388.385.741.494 1.92-.192 2.579-.548.521-1.455.658-2.111.576-2.69-.247-4.663-2.427-6.54-4.267-.546-.535-1.799.843-2.513 1.392-4.965 3.84-10.122 6.056-16.293 7.044-1.564.247-3.456.164-5.131.383-.272 1.51.988 3.156 1.591 4.746.467 1.353.901 2.466-.183 3.55-.87.868-2.013 1.388-3.246 1.388-.383 0-.986-.11-1.315-.521-1.729-2.249-1.181-5.733-.74-8.311.107-.65-.006-1.243-.206-1.811-.253-.728-2.892-6.922-4.731-9.71 2.221-1.399 3.921-3.704 5.677-5.65 1.042-1.181 3.61-3.512 4.301-3.837 1.289-.605 2.333-1.13 3.077-1.184 0 0-.504-.153-.678-.276zm.403-32.968c-.301 2.111.193 4.196.385 6.254-.003-.031-2.73.045-2.936.049-.539.01-1.062.045-1.581.107-.926.111-1.83.31-2.742.617-.492.165-2.117.847-2.808 1.475.248-1.672-.027-3.318-.467-4.799-.164-.686-.74-1.318-.766-1.921l-1.273.514s.729 1.398 1.034 2.189c.304.79.304 2.492.304 3.526 0 1.033-.341 1.754-.341 1.754-1.206.822-2.757 2.704-3.291 3.345l-1.453 1.592c-1.961 2.209-4.279 5.651-6.336 8.421-2.195 2.88-4.033 5.76-4.994 9.134-1.07 3.923.138 7.818 2.853 10.478 2.331 2.331 5.925 2.909 9.078 2.305.443-.091.803-.027 1.111.138.897.483 4.579 6.769 4.95 9.071.083.519.108 1.052.056 1.598-.273 3.237-1.123 7.296 1.702 9.326 1.487 1.068 3.968.196 5.132-.979 1.237-1.246 1.814-2.208 1.59-4.013-.22-1.755-1.482-3.073-1.895-4.608 2.222.136 4.28-.028 6.309-.467 5.404-1.152 10.122-3.373 14.621-6.83.494-.411 1.014-.738 1.453-1.207.44.988 1.482 1.893 2.415 2.524 1.865 1.234 4.581 2.742 6.72 1.179 1.591-1.15 1.817-2.706.989-4.444-.719-1.508-2.473-2.499-3.952-3.126-1.619-.686-3.345-1.016-5.074-1.399-.356-3.703-1.344-7.269-1.7-11.055 1.015-.713 1.754-1.618 2.578-2.551 2.25-2.715 4.279-6.583 2.413-10.011-1.974-3.731-6.116-5.432-9.545-7.379-.642-.366-4.799-1.975-4.799-1.975-1.375-.436-3.457-1.289-4.995-1.646 0 0-2.158-.513-2.704-.695-.366-1.277-.366-1.946-.486-3.77-.061-.91.12-2.736.12-2.736l-1.675.015" fill="#a85a0c" transform="matrix(.97316500767 0 0 -.97316500767 140.71561548118 73.90168166542)"/><path d="m0 0c4.13 8.149-1.595 16.19-5.205 17.646l1.749.327c3.504-2.036 8.357-9.739 4.792-17.642z" fill="#5581ca" transform="matrix(.97316500767 0 0 -.97316500767 92.09142541678 124.56465247884)"/><path d="m0 0c4.502 8.534-1.799 17.695-5.391 18.729l1.247.289c3.559-.783 9.543-9.684 5.592-18.51z" fill="#ef2e31" transform="matrix(.97316500767 0 0 -.97316500767 81.61043823881 127.99506287308)"/><path d="m0 0c2.858-1.145 9.171-8.233 4.562-16.832l-1.257-.292c4.689 8.089-1.477 16.161-5.007 16.84z" fill="#ef2e31" transform="matrix(.97316500767 0 0 -.97316500767 99.46899235234 105.01863584749)"/><g fill="#fff"><path d="m0 0c-3.085-.622-5.954-1.251-8.168-1.769-.501-.117-1.018-.247-1.541-.384 3.559-.783 9.543-9.684 5.592-18.51 1.58.626 2.953 1.145 3.762 1.395 1.421.442 3.349 1.017 5.56 1.622 4.13 8.149-1.595 16.19-5.205 17.646" transform="matrix(.97316500767 0 0 -.97316500767 87.02610458341 107.39218346815)"/><path d="m0 0 .054.013c-2.478-.46-5.827-1.133-9.389-1.841 3.504-2.036 8.357-9.739 4.792-17.642 3.474.942 6.967 1.91 9.175 2.526.126.035.252.069.375.104 4.689 8.089-1.477 16.161-5.007 16.84" transform="matrix(.97316500767 0 0 -.97316500767 97.81266695375 105.29501432058)"/><path d="m0 0c-4.334-1.202-8.966-2.909-12.42-4.118 3.022-.937 5.265-2.218 6.849-4.455 1.924-2.718 2.631-4.321 3.15-7.315.417-2.395.417-3.437-.935-6.562 0 0 4.627 2.059 8.747 3.721 4.502 8.534-1.799 17.695-5.391 18.729" transform="matrix(.97316500767 0 0 -.97316500767 76.36410580996 109.76865428874)"/><path d="m0 0c-.262 3.091-1.251 5.311-4.586 6.458-1.321.454-7.081-.014-10.103-.535-.332-.058-.824-.146-1.44-.258 2.858-1.145 9.171-8.233 4.562-16.832 5.87 1.57 12.235 3.214 11.567 11.167" transform="matrix(.97316500767 0 0 -.97316500767 115.16516979994 110.53161450967)"/><path d="m0 0c-1.324 1.377-2.789 2.621-4.273 3.712-1.381 1.015-4.258 3.372-7.874 4.121l-.25-1.061-1.059-.311-.062-3.679s.068-6.333-1.216-12.043c.929-.297 2.002-.74 2.905-1.385-.088 5.4 4.726 10.412 11.829 10.646" transform="matrix(.97316500767 0 0 -.97316500767 179.33372243572 116.58762291827)"/><path d="m0 0c-.162-.17-.331-.34-.509-.506-1.816-1.708-4.587-3.984-4.592-3.987 3.976-1.293 5.927-6.877 6.275-8.049.581-1.953.925-3.873-.13-6.381 3.294 1.579 6.034 3.209 7.733 4.402 1.167.822 2.209 1.766 3.096 2.629-.221 7.845-6.085 12.619-11.873 11.892" transform="matrix(.97316500767 0 0 -.97316500767 167.26744865738 135.35316028913)"/><path d="m0 0c.069 3.528-.542 6.847-1.711 9.43-.871 1.917-2.116 3.695-3.568 5.304-6.576.04-11.857-5.092-11.926-10.439.483-.464 1.047-1.126 1.262-1.766.122-.368.183-.749.196-1.135 3.812 3.107 10.142 4.332 15.747-1.394" transform="matrix(.97316500767 0 0 -.97316500767 185.05398621272 131.55490046409)"/><path d="m0 0c-.201-1.197-.959-2.844-1.898-3.998 5.781.721 11.7-4.118 11.93-11.954.585.645 1.137 1.355 1.682 2.185 2.211 3.36 3.12 5.723 3.645 8.596.195 1.063.32 2.126.391 3.176-3.477 4.836-10.599 6.092-15.75 1.995" transform="matrix(.97316500767 0 0 -.97316500767 169.67992523707 130.87465672109)"/></g><path d="m0 0c-.217-.265-.332-.348-.578-.604 5.788.726 11.652-4.047 11.873-11.892.237.232.408.294.635.543-.231 7.836-6.148 12.675-11.93 11.953" fill="#ef2e31" transform="matrix(.97316500767 0 0 -.97316500767 167.82994288332 134.76537030383)"/><path d="m0 0c.012-.304-.009-.375-.06-.687 5.151 4.097 12.273 2.841 15.75-1.995.03.431.048.861.055 1.288-5.602 5.726-11.934 4.501-15.745 1.394" fill="#5581ca" transform="matrix(.97316500767 0 0 -.97316500767 169.73831867561 130.20609065781)"/><path d="m0 0c-.196.22-.398.437-.603.65-7.1-.234-11.917-5.244-11.828-10.646.242-.172.294-.241.505-.444.069 5.348 5.35 10.48 11.926 10.44" fill="#ef2e31" transform="matrix(.97316500767 0 0 -.97316500767 179.91664882115 117.21628730255)"/><path d="m0 0c.795-.521 1.208-1.427.906-2.304-.59-1.715-3.099-2.081-4.667-2.421-2.257-.492-4.469-1.029-5.865-.816-.167.987-.798 1.673-1.702 2.112-.632.329-1.371.494-2.111.604-.167 1.559.349 3.486 1.344 4.691 1.536 1.863 3.313.783 5.337.441 2.343-.396 4.74-1.006 6.758-2.307" fill="#ef81c6" transform="matrix(.97316500767 0 0 -.97316500767 138.03843810811 14.10458804034)"/><path d="m0 0c.547-.768.63-1.81.794-2.771-4.114-.465-7.927-2.222-10.396-5.925-1.865.522-4.334.988-5.074 2.908-.707 1.795 2.35 3.434 3.494 4.158 2.12 1.34 4.021 2.862 6.519 3.468 1.809.439 3.565-.357 4.663-1.838" fill="#ef81c6" transform="matrix(.97316500767 0 0 -.97316500767 123.17139607978 14.10458804034)"/></svg>